<svg preserveAspectRatio="none" width="100%" height="100%" overflow="visible" style="display: block;" viewBox="0 0 22.283 19.3774" fill="none" xmlns="http://www.w3.org/2000/svg">
<path id="Vector" d="M18.9739 8.71997H0.96875C0.711822 8.71997 0.465416 8.82204 0.28374 9.00372C0.102065 9.18539 0 9.4318 0 9.68872C0 9.94565 0.102065 10.1921 0.28374 10.3737C0.465416 10.5554 0.711822 10.6575 0.96875 10.6575H18.9739L11.9079 17.7216C11.726 17.9035 11.6238 18.1502 11.6238 18.4075C11.6238 18.6647 11.726 18.9114 11.9079 19.0933C12.0898 19.2753 12.3365 19.3774 12.5938 19.3774C12.851 19.3774 13.0977 19.2753 13.2796 19.0933L21.9984 10.3746C22.0886 10.2846 22.1602 10.1777 22.209 10.06C22.2578 9.94232 22.283 9.81615 22.283 9.68872C22.283 9.5613 22.2578 9.43513 22.209 9.31743C22.1602 9.19974 22.0886 9.09284 21.9984 9.00285L13.2796 0.284099C13.0977 0.102193 12.851 0 12.5938 0C12.3365 0 12.0898 0.102193 11.9079 0.284099C11.726 0.466004 11.6238 0.712721 11.6238 0.969974C11.6238 1.22723 11.726 1.47394 11.9079 1.65585L18.9739 8.71997Z" fill="var(--fill-0, white)"/>
</svg>
